<?xml version="1.0" encoding="UTF-8"?>
<svg width="132px" height="51px" viewBox="0 0 132 51" version="1.1" xmlns="http://www.w3.org/2000/svg" xmlns:xlink="http://www.w3.org/1999/xlink">
    <title>1.Identity/BI_Black</title>
    <g id="**Main" stroke="none" stroke-width="1" fill="none" fill-rule="evenodd" opacity="0.15">
        <g id="PC)-Main-(Whole)-Copy" transform="translate(-1289.000000, -7412.000000)" fill="#050101">
            <g id="3.Layout/PC/Footer" transform="translate(0.000000, 7392.000000)">
                <g id="Group-9" transform="translate(20.000000, 20.000000)">
                    <g id="Group" transform="translate(1269.298246, 0.000000)">
                        <g id="Group" transform="translate(-0.205877, 0.026930)">
                            <path d="M5.12982456,26.0917544 C5.12982456,27.7549123 5.26140351,29.1189474 5.53596491,30.1803509 C5.81315789,31.24 6.20438596,32.0794737 6.70087719,32.6821053 C7.20614035,33.2873684 7.80438596,33.7049123 8.50526316,33.9321053 C9.20438596,34.1557895 9.96315789,34.2698246 10.7991228,34.2698246 C12.1096491,34.2698246 13.1842105,34.035614 14.0201754,33.5496491 C14.8578947,33.0645614 15.5192982,32.4294737 16.0105263,31.6373684 C16.504386,30.8514035 16.8403509,29.9531579 17.0280702,28.9575439 C17.2219298,27.9496491 17.3184211,26.9294737 17.3184211,25.8935088 C17.3184211,24.3970175 17.1570175,23.1408772 16.8403509,22.1101754 C16.5175439,21.0750877 16.0745614,20.2470175 15.5052632,19.6198246 C14.9403509,18.99 14.2596491,18.5364912 13.4701754,18.2566667 C12.6938596,17.9794737 11.8307018,17.8435088 10.8964912,17.8435088 C10.0657895,17.8435088 9.30350877,17.9496491 8.59035088,18.1724561 C7.88508772,18.3864912 7.27631579,18.8066667 6.7622807,19.4119298 C6.23684211,20.0180702 5.84210526,20.8522807 5.55614035,21.9180702 C5.26842105,22.9908772 5.12982456,24.3803509 5.12982456,26.0917544 L5.12982456,26.0917544 Z M21.9780702,33.6373684 L25.8622807,33.6373684 L25.8622807,35.3882456 L17.3184211,35.3882456 L17.3184211,32.7391228 L17.2114035,32.7391228 C16.7666667,33.362807 16.2850877,33.8891228 15.7517544,34.3049123 C15.2263158,34.7224561 14.6745614,35.062807 14.0833333,35.312807 C13.4973684,35.5689474 12.8807018,35.7531579 12.2464912,35.8540351 C11.6061404,35.9549123 10.9596491,36.0084211 10.3017544,36.0084211 C8.66403509,36.0084211 7.20614035,35.7478947 5.92982456,35.2250877 C4.65,34.7057895 3.5745614,34.0022807 2.69561404,33.1198246 C1.81491228,32.2329825 1.14298246,31.1987719 0.685964912,30.0198246 C0.228070175,28.8312281 0,27.5636842 0,26.2180702 C0,24.8163158 0.253508772,23.494386 0.754385965,22.2663158 C1.24912281,21.0242105 1.96403509,19.9566667 2.88859649,19.0452632 C3.80701754,18.1426316 4.91754386,17.4250877 6.20438596,16.9014035 C7.48859649,16.367193 8.91403509,16.1119298 10.4807018,16.1119298 C12.0052632,16.1119298 13.3377193,16.3715789 14.4701754,16.9092982 C15.6096491,17.4435088 16.522807,18.1908772 17.2114035,19.1557895 L17.3184211,19.1557895 L17.3184211,5.27508772 L13.177193,5.27508772 L13.177193,3.51894737 L21.9780702,3.51894737 L21.9780702,33.6373684 Z" id="Fill-1"></path>
                            <path d="M47.2436842,10.1181579 L42.6129825,22.4935965 L51.674386,22.4935965 L47.3331579,10.1181579 L47.2436842,10.1181579 Z M42.8340351,33.6374561 L42.8340351,35.3883333 L32.1515789,35.3883333 L32.1515789,33.6374561 L36.3164912,33.6374561 L47.7235088,3.18570175 L49.4550877,3.18570175 L60.1621053,33.6374561 L64.5050877,33.6374561 L64.5050877,35.3883333 L51.0147368,35.3883333 L51.0147368,33.6374561 L55.5787719,33.6374561 L52.2875439,24.2672807 L41.9357895,24.2672807 L38.4445614,33.6374561 L42.8340351,33.6374561 Z" id="Fill-3"></path>
                            <polygon id="Fill-5" points="74.335614 33.6370175 78.2180702 33.6370175 78.2180702 35.3878947 65.7882456 35.3878947 65.7882456 33.6370175 69.6724561 33.6370175 69.6724561 5.27473684 65.7882456 5.27473684 65.7882456 3.51859649 74.335614 3.51859649"></polygon>
                            <path d="M101.155088,26.0061404 C101.155088,24.3315789 101.014737,22.9684211 100.740175,21.9114035 C100.461228,20.8491228 100.069123,20.0184211 99.5568421,19.4114035 C99.0498246,18.8070175 98.4410526,18.3868421 97.7375439,18.1719298 C97.0314035,17.9491228 96.2410526,17.8438596 95.3778947,17.8438596 C94.2094737,17.8438596 93.2138596,18.0289474 92.4033333,18.4114035 C91.5884211,18.7929825 90.9322807,19.3333333 90.4252632,20.0315789 C89.9129825,20.7359649 89.5410526,21.5842105 89.3129825,22.5736842 C89.0752632,23.5508772 88.9664912,24.6622807 88.9664912,25.8929825 C88.9664912,27.1464912 89.0717544,28.2307018 89.2840351,29.1324561 C89.4980702,30.0491228 89.7787719,30.8105263 90.1270175,31.4280702 C90.4673684,32.0526316 90.8752632,32.5473684 91.3261404,32.9210526 C91.7814035,33.2982456 92.2445614,33.5807018 92.7296491,33.7754386 C93.1989474,33.9736842 93.6814035,34.104386 94.1498246,34.1710526 C94.6261404,34.2385965 95.0577193,34.2701754 95.4349123,34.2701754 C96.2603509,34.2701754 97.0314035,34.1561404 97.7252632,33.9403509 C98.4191228,33.7236842 99.02,33.3105263 99.5278947,32.7052632 C100.046316,32.1 100.442807,31.2570175 100.725263,30.1807018 C101.007719,29.104386 101.155088,27.7140351 101.155088,26.0061404 L101.155088,26.0061404 Z M87.9270175,35.3877193 L84.2980702,35.3877193 L84.2980702,5.2745614 L80.4173684,5.2745614 L80.4173684,3.51842105 L88.9664912,3.51842105 L88.9664912,19.1552632 L89.0594737,19.1552632 C89.8287719,18.1201754 90.8050877,17.35 92.0235088,16.854386 C93.2498246,16.3570175 94.5673684,16.1114035 96.0050877,16.1114035 C97.5059649,16.1114035 98.8778947,16.3412281 100.125263,16.8096491 C101.377895,17.2780702 102.460351,17.9412281 103.377018,18.7929825 C104.290175,19.65 105.008596,20.6868421 105.512105,21.9 C106.020877,23.1166667 106.277895,24.4552632 106.277895,25.9350877 C106.277895,27.5052632 105.999825,28.9061404 105.433158,30.1491228 C104.87614,31.3877193 104.124386,32.4447368 103.173509,33.3061404 C102.224386,34.1684211 101.11386,34.8342105 99.8577193,35.3061404 C98.5954386,35.7719298 97.2673684,36.0078947 95.874386,36.0078947 C94.4735088,36.0078947 93.1849123,35.7473684 92.0059649,35.2254386 C90.824386,34.7061404 89.8392982,33.8789474 89.0594737,32.7394737 L88.9050877,32.7394737 L87.9270175,35.3877193 Z" id="Fill-7"></path>
                            <path d="M123.196228,26.355614 C121.443596,26.3985965 120.025175,26.5152632 118.959386,26.7170175 C117.869912,26.9117544 117.043596,27.1907018 116.442719,27.5459649 C115.846228,27.9091228 115.441842,28.3450877 115.23307,28.86 C115.019035,29.3608772 114.919035,29.9450877 114.919035,30.6029825 C114.919035,31.7477193 115.181316,32.6021053 115.707632,33.1608772 C116.228684,33.7257895 116.947982,34.0073684 117.869912,34.0073684 C118.362895,34.0073684 118.923421,33.9135088 119.538333,33.7231579 C120.160263,33.5310526 120.747982,33.2222807 121.287456,32.7889474 C121.844474,32.3608772 122.290088,31.7880702 122.647982,31.0924561 C123.01114,30.387193 123.196228,29.5178947 123.196228,28.4819298 L123.196228,26.355614 Z M130.947105,35.3880702 C130.267281,35.5064912 129.638333,35.5810526 129.062018,35.6108772 C128.484825,35.6398246 128.027807,35.6573684 127.686579,35.6573684 C126.830439,35.6573684 126.136579,35.5898246 125.570789,35.4705263 C125.020789,35.3468421 124.580439,35.1617544 124.262018,34.9275439 C123.934825,34.6915789 123.706754,34.4082456 123.56114,34.0757895 C123.413772,33.7380702 123.321667,33.3626316 123.293596,32.9547368 L123.170789,32.9547368 C122.721667,33.5257895 122.240088,34.0073684 121.726053,34.4012281 C121.208509,34.7985965 120.674298,35.1152632 120.113772,35.3468421 C119.545351,35.5810526 118.975175,35.7529825 118.389211,35.8538596 C117.794474,35.9547368 117.194474,36.0082456 116.615526,36.0082456 C115.625175,36.0082456 114.755,35.8836842 113.983947,35.6398246 C113.204123,35.4021053 112.556754,35.0626316 112.032193,34.6205263 C111.494474,34.1854386 111.093596,33.6652632 110.818158,33.0512281 C110.538333,32.4442105 110.405,31.782807 110.405,31.0503509 C110.405,29.014386 111.508509,27.4696491 113.699737,26.4091228 C115.897982,25.3424561 119.056754,24.782807 123.196228,24.705614 C123.210263,24.0494737 123.219912,23.455614 123.235702,22.9292982 C123.242719,22.4012281 123.242719,21.8863158 123.242719,21.3678947 C123.242719,20.0389474 122.944474,19.114386 122.334825,18.5792982 C121.741842,18.037193 120.778684,17.7749123 119.483947,17.7749123 C118.612895,17.7749123 117.839211,17.8617544 117.149737,18.037193 C116.466404,18.2161404 115.905877,18.4503509 115.479561,18.7442105 C115.862018,19.0722807 116.147982,19.4336842 116.33307,19.8029825 C116.518158,20.1766667 116.615526,20.5477193 116.615526,20.914386 C116.615526,21.5257895 116.396228,22.0380702 115.96114,22.4477193 C115.524298,22.855614 114.929561,23.0661404 114.165526,23.0661404 C113.852368,23.0661404 113.541842,23.0161404 113.230439,22.9292982 C112.923421,22.8433333 112.66114,22.71 112.438333,22.5170175 C112.207632,22.3257895 112.032193,22.0854386 111.886579,21.8021053 C111.762018,21.5178947 111.688333,21.1810526 111.688333,20.8012281 C111.688333,20.205614 111.873421,19.6196491 112.227807,19.0608772 C112.585702,18.4933333 113.12693,17.9985965 113.852368,17.5573684 C114.564649,17.1152632 115.457632,16.7652632 116.526053,16.4994737 C117.591842,16.2415789 118.844474,16.1117544 120.27693,16.1117544 C121.431316,16.1117544 122.464649,16.2161404 123.355877,16.414386 C124.247982,16.6214035 125.006754,16.9626316 125.620789,17.4389474 C126.239211,17.9117544 126.710263,18.5459649 127.019912,19.332807 C127.340965,20.1187719 127.492719,21.1038596 127.492719,22.2749123 C127.492719,22.5635088 127.492719,23.0424561 127.488333,23.7117544 C127.479561,24.3749123 127.454123,25.1117544 127.447105,25.914386 C127.429561,26.7170175 127.422544,27.5345614 127.41114,28.3564912 C127.397105,29.1863158 127.395351,29.9126316 127.395351,30.5398246 C127.395351,31.1880702 127.41114,31.7249123 127.447105,32.1564912 C127.479561,32.587193 127.558509,32.9336842 127.686579,33.1889474 C127.810263,33.4442105 128.008509,33.6249123 128.265526,33.732807 C128.519035,33.8459649 128.880439,33.9012281 129.347105,33.9012281 C129.749737,33.9012281 130.283947,33.8529825 130.947105,33.7696491 L130.947105,35.3880702 Z" id="Fill-9"></path>
                            <polygon id="Fill-11" points="28.8603509 3.11641551e-15 28.1752632 8.54210526 29.5682456 8.54210526 32.6278947 3.11641551e-15"></polygon>
                            <path d="M18.972193,45.8328947 C18.972193,45.9600877 18.9844737,46.097807 19.0204386,46.2135965 C19.2002632,46.8592105 19.8458772,47.3030702 20.5862281,47.3030702 C21.6976316,47.3030702 22.3441228,46.4995614 22.3441228,45.3258772 C22.3441228,44.2995614 21.7458772,43.4223684 20.6344737,43.4223684 C19.917807,43.4223684 19.2362281,43.8662281 19.0318421,44.575 C19.0081579,44.6907895 18.972193,44.8285088 18.972193,44.9451754 L18.972193,45.8328947 Z M17.922193,44.4688596 C17.922193,43.8127193 17.9099123,43.2855263 17.8739474,42.7986842 L18.817807,42.7986842 L18.8783333,43.6758772 L18.9020175,43.6758772 C19.3195614,43.0416667 20.0125439,42.6820175 20.9458772,42.6820175 C22.3555263,42.6820175 23.4081579,43.729386 23.4081579,45.2828947 C23.4081579,47.1232456 22.1283333,48.0328947 20.7783333,48.0328947 C20.0002632,48.0328947 19.3441228,47.7364035 18.9958772,47.229386 L18.972193,47.229386 L18.972193,50.0100877 L17.922193,50.0100877 L17.922193,44.4688596 Z" id="Fill-13"></path>
                            <path d="M31.6181579,47.9160526 L32.6681579,47.9160526 L32.6681579,42.7985088 L31.6181579,42.7985088 L31.6181579,47.9160526 Z M32.1199123,41.9318421 C31.7357018,41.9318421 31.4857018,41.6669298 31.4857018,41.3607895 C31.4857018,41.0327193 31.7479825,40.7792105 32.1435965,40.7792105 C32.5260526,40.7792105 32.7883333,41.0327193 32.7883333,41.3607895 C32.7883333,41.6669298 32.5374561,41.9318421 32.132193,41.9318421 L32.1199123,41.9318421 Z" id="Fill-15"></path>
                            <path d="M44.9778947,44.8598246 C44.9901754,44.2685965 44.7042105,43.3484211 43.5322807,43.3484211 C42.4559649,43.3484211 42.0015789,44.2159649 41.9182456,44.8598246 L44.9778947,44.8598246 Z M41.9059649,45.5264912 C41.9296491,46.7747368 42.8278947,47.2922807 43.8778947,47.2922807 C44.6314035,47.2922807 45.0980702,47.1764912 45.4796491,47.0282456 L45.6717544,47.6940351 C45.3015789,47.8422807 44.6559649,48.0221053 43.7357895,48.0221053 C41.965614,48.0221053 40.8901754,46.975614 40.8901754,45.4422807 C40.8901754,43.8984211 41.9296491,42.6817544 43.615614,42.6817544 C45.5042105,42.6817544 45.9936842,44.1519298 45.9936842,45.0931579 C45.9936842,45.2826316 45.9822807,45.4212281 45.9577193,45.5264912 L41.9059649,45.5264912 Z" id="Fill-17"></path>
                            <path d="M58.1357895,44.8820175 C58.1357895,44.7539474 58.1235088,44.6065789 58.0875439,44.479386 C57.9340351,43.8986842 57.3594737,43.4118421 56.57,43.4118421 C55.4840351,43.4118421 54.8375439,44.2574561 54.8375439,45.3785088 C54.8375439,46.4258772 55.4235088,47.2820175 56.5463158,47.2820175 C57.2515789,47.2820175 57.8980702,46.8592105 58.0875439,46.1609649 C58.1235088,46.0442982 58.1357895,45.9179825 58.1357895,45.7697368 L58.1357895,44.8820175 Z M59.1875439,40.4083333 L59.1875439,46.5942982 C59.1875439,47.0495614 59.1998246,47.5671053 59.2357895,47.9162281 L58.2919298,47.9162281 L58.2436842,47.0276316 L58.22,47.0276316 C57.8980702,47.5995614 57.2042105,48.0328947 56.2594737,48.0328947 C54.8621053,48.0328947 53.7735088,46.9855263 53.7735088,45.4311404 C53.7621053,43.7188596 54.97,42.6820175 56.3673684,42.6820175 C57.2638596,42.6820175 57.8621053,43.052193 58.1121053,43.4539474 L58.1357895,43.4539474 L58.1357895,40.4083333 L59.1875439,40.4083333 Z" id="Fill-18"></path>
                            <path d="M67.8277193,44.1830702 C67.8277193,43.6444737 67.8040351,43.2216667 67.7794737,42.7988596 L68.6996491,42.7988596 L68.7478947,43.6225439 L68.7838596,43.6225439 C69.1075439,43.1365789 69.6435088,42.682193 70.6136842,42.682193 C71.39,42.682193 71.9873684,43.105 72.2373684,43.7076316 L72.2619298,43.7076316 C72.4417544,43.4120175 72.6812281,43.1997368 72.9198246,43.0418421 C73.2654386,42.809386 73.6373684,42.682193 74.1873684,42.682193 C74.9636842,42.682193 76.0996491,43.1260526 76.0996491,44.9023684 L76.0996491,47.9164035 L75.0715789,47.9164035 L75.0715789,45.0190351 C75.0715789,44.0251754 74.6531579,43.4427193 73.8154386,43.4427193 C73.2057895,43.4427193 72.7514035,43.8357018 72.5610526,44.2786842 C72.5136842,44.4164035 72.4777193,44.5857018 72.4777193,44.7444737 L72.4777193,47.9164035 L71.4496491,47.9164035 L71.4496491,44.8392105 C71.4496491,44.0251754 71.0435088,43.4427193 70.2417544,43.4427193 C69.5978947,43.4427193 69.1075439,43.909386 68.94,44.3742982 C68.8794737,44.5120175 68.8557895,44.6699123 68.8557895,44.8286842 L68.8557895,47.9164035 L67.8277193,47.9164035 L67.8277193,44.1830702 Z" id="Fill-19"></path>
                            <path d="M87.0934211,47.3345614 C88.097807,47.3345614 88.8495614,46.4994737 88.8495614,45.3363158 C88.8495614,44.4687719 88.3592105,43.3792982 87.1171053,43.3792982 C85.8855263,43.3792982 85.347807,44.3950877 85.347807,45.3678947 C85.347807,46.4889474 86.0653509,47.3345614 87.0811404,47.3345614 L87.0934211,47.3345614 Z M87.0451754,48.032807 C85.4916667,48.032807 84.2714912,47.0178947 84.2714912,45.3994737 C84.2714912,43.6863158 85.5513158,42.6819298 87.1416667,42.6819298 C88.8013158,42.6819298 89.9258772,43.7494737 89.9258772,45.3047368 C89.9258772,47.2073684 88.4311404,48.032807 87.0574561,48.032807 L87.0451754,48.032807 Z" id="Fill-20"></path>
                            <path d="M98.1474561,44.1830702 C98.1474561,43.6444737 98.1351754,43.2216667 98.0992105,42.7988596 L99.0316667,42.7988596 L99.0913158,43.6339474 L99.1158772,43.6339474 C99.4035965,43.1585088 100.07114,42.682193 101.027281,42.682193 C101.829035,42.682193 103.07114,43.105 103.07114,44.859386 L103.07114,47.9164035 L102.019386,47.9164035 L102.019386,44.9655263 C102.019386,44.1418421 101.673772,43.4427193 100.681667,43.4427193 C99.9992105,43.4427193 99.4614912,43.8760526 99.2711404,44.3953509 C99.2237719,44.5120175 99.1992105,44.6804386 99.1992105,44.8286842 L99.1992105,47.9164035 L98.1474561,47.9164035 L98.1474561,44.1830702 Z" id="Fill-21"></path>
                            <path d="M112.895263,41.5720175 L112.895263,42.7983333 L114.401404,42.7983333 L114.401404,43.5062281 L112.895263,43.5062281 L112.895263,46.2562281 C112.895263,46.8895614 113.098772,47.2500877 113.684737,47.2500877 C113.971579,47.2500877 114.139123,47.2290351 114.293509,47.1860526 L114.340877,47.8957018 C114.139123,47.9588596 113.815439,48.0228947 113.409298,48.0228947 C112.918947,48.0228947 112.525088,47.8737719 112.273333,47.6299123 C111.987368,47.3457018 111.867193,46.8895614 111.867193,46.287807 L111.867193,43.5062281 L110.971579,43.5062281 L110.971579,42.7983333 L111.867193,42.7983333 L111.867193,41.8571053 L112.895263,41.5720175 Z" id="Fill-22"></path>
                        </g>
                    </g>
                </g>
            </g>
        </g>
    </g>
</svg>